<svg width="40" height="40" viewBox="0 0 40 40" fill="none" xmlns="http://www.w3.org/2000/svg">
<path fill-rule="evenodd" clip-rule="evenodd" d="M36.5 20C36.5 29.1127 29.1127 36.5 20 36.5C10.8873 36.5 3.5 29.1127 3.5 20C3.5 10.8873 10.8873 3.5 20 3.5C29.1127 3.5 36.5 10.8873 36.5 20ZM40 20C40 31.0457 31.0457 40 20 40C8.9543 40 0 31.0457 0 20C0 8.9543 8.9543 0 20 0C31.0457 0 40 8.9543 40 20ZM29.5424 16.1471C30.176 15.4794 30.1482 14.4245 29.4805 13.7909C28.8127 13.1574 27.7578 13.1851 27.1243 13.8529L17.2223 24.2895L12.8344 19.9807C12.1777 19.3358 11.1224 19.3454 10.4775 20.0021C9.83256 20.6589 9.84215 21.7141 10.4989 22.3591L16.0966 27.8558C16.4155 28.169 16.8469 28.341 17.2938 28.3331C17.7407 28.3252 18.1657 28.1381 18.4734 27.8138L29.5424 16.1471Z" fill="#404040"/>
</svg>
